<mxfile host="65bd71144e">
    <diagram id="domain-model-class" name="Domain Model Class Diagram">
        <mxGraphModel dx="459" dy="287" grid="1" gridSize="10" guides="1" tooltips="1" connect="1" arrows="1" fold="1" page="1" pageScale="1" pageWidth="1400" pageHeight="900" math="0" shadow="0">
            <root>
                <mxCell id="0"/>
                <mxCell id="1" parent="0"/>
                <mxCell id="title" value="Office Supplies Management System - Domain Model Class Diagram" style="text;html=1;strokeColor=none;fillColor=none;align=center;verticalAlign=middle;whiteSpace=wrap;rounded=0;fontSize=16;fontStyle=1;" parent="1" vertex="1">
                    <mxGeometry x="450" y="20" width="500" height="30" as="geometry"/>
                </mxCell>
                <mxCell id="user-class" value="User" style="swimlane;fontStyle=1;align=center;verticalAlign=top;childLayout=stackLayout;horizontal=1;startSize=26;horizontalStack=0;resizeParent=1;resizeParentMax=0;resizeLast=0;collapsible=1;marginBottom=0;fillColor=#dae8fc;strokeColor=#6c8ebf;" parent="1" vertex="1">
                    <mxGeometry x="80" y="80" width="200" height="220" as="geometry"/>
                </mxCell>
                <mxCell id="user-attributes" value="- id: string&#xa;- email: string&#xa;- name: string&#xa;- password: string&#xa;- role: UserRole&#xa;- department: string&#xa;- createdAt: Date&#xa;- updatedAt: Date" style="text;strokeColor=none;fillColor=none;align=left;verticalAlign=top;spacingLeft=4;spacingRight=4;overflow=hidden;rotatable=0;points=[[0,0.5],[1,0.5]];portConstraint=eastwest;" parent="user-class" vertex="1">
                    <mxGeometry y="26" width="200" height="124" as="geometry"/>
                </mxCell>
                <mxCell id="user-separator" value="" style="line;strokeWidth=1;fillColor=none;align=left;verticalAlign=middle;spacingTop=-1;spacingLeft=3;spacingRight=3;rotatable=0;labelPosition=right;points=[];portConstraint=eastwest;" parent="user-class" vertex="1">
                    <mxGeometry y="150" width="200" height="8" as="geometry"/>
                </mxCell>
                <mxCell id="user-methods" value="+ authenticate(): boolean&#xa;+ hasPermission(action): boolean&#xa;+ createRequest(): Request&#xa;+ approveRequest(): void" style="text;strokeColor=none;fillColor=none;align=left;verticalAlign=top;spacingLeft=4;spacingRight=4;overflow=hidden;rotatable=0;points=[[0,0.5],[1,0.5]];portConstraint=eastwest;" parent="user-class" vertex="1">
                    <mxGeometry y="158" width="200" height="62" as="geometry"/>
                </mxCell>
                <mxCell id="userrole-enum" value="&lt;&lt;enumeration&gt;&gt;&#xa;UserRole" style="swimlane;fontStyle=1;align=center;verticalAlign=top;childLayout=stackLayout;horizontal=1;startSize=40;horizontalStack=0;resizeParent=1;resizeParentMax=0;resizeLast=0;collapsible=1;marginBottom=0;fillColor=#fff2cc;strokeColor=#d6b656;" parent="1" vertex="1">
                    <mxGeometry x="80" y="340" width="120" height="100" as="geometry"/>
                </mxCell>
                <mxCell id="userrole-values" value="ADMIN&#xa;MANAGER&#xa;EMPLOYEE" style="text;strokeColor=none;fillColor=none;align=left;verticalAlign=top;spacingLeft=4;spacingRight=4;overflow=hidden;rotatable=0;points=[[0,0.5],[1,0.5]];portConstraint=eastwest;" parent="userrole-enum" vertex="1">
                    <mxGeometry y="40" width="120" height="60" as="geometry"/>
                </mxCell>
                <mxCell id="request-class" value="Request" style="swimlane;fontStyle=1;align=center;verticalAlign=top;childLayout=stackLayout;horizontal=1;startSize=26;horizontalStack=0;resizeParent=1;resizeParentMax=0;resizeLast=0;collapsible=1;marginBottom=0;fillColor=#d5e8d4;strokeColor=#82b366;" parent="1" vertex="1">
                    <mxGeometry x="360" y="80" width="220" height="260" as="geometry"/>
                </mxCell>
                <mxCell id="request-attributes" value="- id: string&#xa;- title: string&#xa;- description: string&#xa;- status: RequestStatus&#xa;- priority: Priority&#xa;- requesterId: string&#xa;- department: string&#xa;- totalAmount: number&#xa;- attachments: string[]&#xa;- createdAt: Date&#xa;- updatedAt: Date" style="text;strokeColor=none;fillColor=none;align=left;verticalAlign=top;spacingLeft=4;spacingRight=4;overflow=hidden;rotatable=0;points=[[0,0.5],[1,0.5]];portConstraint=eastwest;" parent="request-class" vertex="1">
                    <mxGeometry y="26" width="220" height="164" as="geometry"/>
                </mxCell>
                <mxCell id="request-separator" value="" style="line;strokeWidth=1;fillColor=none;align=left;verticalAlign=middle;spacingTop=-1;spacingLeft=3;spacingRight=3;rotatable=0;labelPosition=right;points=[];portConstraint=eastwest;" parent="request-class" vertex="1">
                    <mxGeometry y="190" width="220" height="8" as="geometry"/>
                </mxCell>
                <mxCell id="request-methods" value="+ submit(): void&#xa;+ approve(approverId): void&#xa;+ reject(reason): void&#xa;+ calculateTotal(): number" style="text;strokeColor=none;fillColor=none;align=left;verticalAlign=top;spacingLeft=4;spacingRight=4;overflow=hidden;rotatable=0;points=[[0,0.5],[1,0.5]];portConstraint=eastwest;" parent="request-class" vertex="1">
                    <mxGeometry y="198" width="220" height="62" as="geometry"/>
                </mxCell>
                <mxCell id="requeststatus-enum" value="&lt;&lt;enumeration&gt;&gt;&#xa;RequestStatus" style="swimlane;fontStyle=1;align=center;verticalAlign=top;childLayout=stackLayout;horizontal=1;startSize=40;horizontalStack=0;resizeParent=1;resizeParentMax=0;resizeLast=0;collapsible=1;marginBottom=0;fillColor=#fff2cc;strokeColor=#d6b656;" parent="1" vertex="1">
                    <mxGeometry x="360" y="380" width="120" height="120" as="geometry"/>
                </mxCell>
                <mxCell id="requeststatus-values" value="PENDING&#xa;IN_PROGRESS&#xa;APPROVED&#xa;REJECTED&#xa;COMPLETED" style="text;strokeColor=none;fillColor=none;align=left;verticalAlign=top;spacingLeft=4;spacingRight=4;overflow=hidden;rotatable=0;points=[[0,0.5],[1,0.5]];portConstraint=eastwest;" parent="requeststatus-enum" vertex="1">
                    <mxGeometry y="40" width="120" height="80" as="geometry"/>
                </mxCell>
                <mxCell id="priority-enum" value="&lt;&lt;enumeration&gt;&gt;&#xa;Priority" style="swimlane;fontStyle=1;align=center;verticalAlign=top;childLayout=stackLayout;horizontal=1;startSize=40;horizontalStack=0;resizeParent=1;resizeParentMax=0;resizeLast=0;collapsible=1;marginBottom=0;fillColor=#fff2cc;strokeColor=#d6b656;" parent="1" vertex="1">
                    <mxGeometry x="520" y="380" width="100" height="100" as="geometry"/>
                </mxCell>
                <mxCell id="priority-values" value="LOW&#xa;MEDIUM&#xa;HIGH&#xa;URGENT" style="text;strokeColor=none;fillColor=none;align=left;verticalAlign=top;spacingLeft=4;spacingRight=4;overflow=hidden;rotatable=0;points=[[0,0.5],[1,0.5]];portConstraint=eastwest;" parent="priority-enum" vertex="1">
                    <mxGeometry y="40" width="100" height="60" as="geometry"/>
                </mxCell>
                <mxCell id="item-class" value="Item" style="swimlane;fontStyle=1;align=center;verticalAlign=top;childLayout=stackLayout;horizontal=1;startSize=26;horizontalStack=0;resizeParent=1;resizeParentMax=0;resizeLast=0;collapsible=1;marginBottom=0;fillColor=#f8cecc;strokeColor=#b85450;" parent="1" vertex="1">
                    <mxGeometry x="680" y="80" width="200" height="260" as="geometry"/>
                </mxCell>
                <mxCell id="item-attributes" value="- id: string&#xa;- reference: string&#xa;- name: string&#xa;- description: string&#xa;- unit: string&#xa;- price: number&#xa;- minStock: number&#xa;- currentStock: number&#xa;- categoryId: string&#xa;- supplierId: string&#xa;- isActive: boolean&#xa;- createdAt: Date&#xa;- updatedAt: Date" style="text;strokeColor=none;fillColor=none;align=left;verticalAlign=top;spacingLeft=4;spacingRight=4;overflow=hidden;rotatable=0;points=[[0,0.5],[1,0.5]];portConstraint=eastwest;" parent="item-class" vertex="1">
                    <mxGeometry y="26" width="200" height="184" as="geometry"/>
                </mxCell>
                <mxCell id="item-separator" value="" style="line;strokeWidth=1;fillColor=none;align=left;verticalAlign=middle;spacingTop=-1;spacingLeft=3;spacingRight=3;rotatable=0;labelPosition=right;points=[];portConstraint=eastwest;" parent="item-class" vertex="1">
                    <mxGeometry y="210" width="200" height="8" as="geometry"/>
                </mxCell>
                <mxCell id="item-methods" value="+ isLowStock(): boolean&#xa;+ updateStock(quantity): void" style="text;strokeColor=none;fillColor=none;align=left;verticalAlign=top;spacingLeft=4;spacingRight=4;overflow=hidden;rotatable=0;points=[[0,0.5],[1,0.5]];portConstraint=eastwest;" parent="item-class" vertex="1">
                    <mxGeometry y="218" width="200" height="42" as="geometry"/>
                </mxCell>
                <mxCell id="supplier-class" value="Supplier" style="swimlane;fontStyle=1;align=center;verticalAlign=top;childLayout=stackLayout;horizontal=1;startSize=26;horizontalStack=0;resizeParent=1;resizeParentMax=0;resizeLast=0;collapsible=1;marginBottom=0;fillColor=#e1d5e7;strokeColor=#9673a6;" parent="1" vertex="1">
                    <mxGeometry x="960" y="80" width="180" height="200" as="geometry"/>
                </mxCell>
                <mxCell id="supplier-attributes" value="- id: string&#xa;- name: string&#xa;- email: string&#xa;- phone: string&#xa;- address: string&#xa;- contactPerson: string&#xa;- createdAt: Date&#xa;- updatedAt: Date" style="text;strokeColor=none;fillColor=none;align=left;verticalAlign=top;spacingLeft=4;spacingRight=4;overflow=hidden;rotatable=0;points=[[0,0.5],[1,0.5]];portConstraint=eastwest;" parent="supplier-class" vertex="1">
                    <mxGeometry y="26" width="180" height="124" as="geometry"/>
                </mxCell>
                <mxCell id="supplier-separator" value="" style="line;strokeWidth=1;fillColor=none;align=left;verticalAlign=middle;spacingTop=-1;spacingLeft=3;spacingRight=3;rotatable=0;labelPosition=right;points=[];portConstraint=eastwest;" parent="supplier-class" vertex="1">
                    <mxGeometry y="150" width="180" height="8" as="geometry"/>
                </mxCell>
                <mxCell id="supplier-methods" value="+ getPerformanceMetrics(): object&#xa;+ updateContactInfo(): void" style="text;strokeColor=none;fillColor=none;align=left;verticalAlign=top;spacingLeft=4;spacingRight=4;overflow=hidden;rotatable=0;points=[[0,0.5],[1,0.5]];portConstraint=eastwest;" parent="supplier-class" vertex="1">
                    <mxGeometry y="158" width="180" height="42" as="geometry"/>
                </mxCell>
                <mxCell id="category-class" value="Category" style="swimlane;fontStyle=1;align=center;verticalAlign=top;childLayout=stackLayout;horizontal=1;startSize=26;horizontalStack=0;resizeParent=1;resizeParentMax=0;resizeLast=0;collapsible=1;marginBottom=0;fillColor=#fad7ac;strokeColor=#b46504;" parent="1" vertex="1">
                    <mxGeometry x="680" y="360" width="180" height="160" as="geometry"/>
                </mxCell>
                <mxCell id="category-attributes" value="- id: string&#xa;- name: string&#xa;- description: string&#xa;- parentId: string&#xa;- createdAt: Date&#xa;- updatedAt: Date" style="text;strokeColor=none;fillColor=none;align=left;verticalAlign=top;spacingLeft=4;spacingRight=4;overflow=hidden;rotatable=0;points=[[0,0.5],[1,0.5]];portConstraint=eastwest;" parent="category-class" vertex="1">
                    <mxGeometry y="26" width="180" height="94" as="geometry"/>
                </mxCell>
                <mxCell id="category-separator" value="" style="line;strokeWidth=1;fillColor=none;align=left;verticalAlign=middle;spacingTop=-1;spacingLeft=3;spacingRight=3;rotatable=0;labelPosition=right;points=[];portConstraint=eastwest;" parent="category-class" vertex="1">
                    <mxGeometry y="120" width="180" height="8" as="geometry"/>
                </mxCell>
                <mxCell id="category-methods" value="+ getSubcategories(): Category[]&#xa;+ addSubcategory(): void" style="text;strokeColor=none;fillColor=none;align=left;verticalAlign=top;spacingLeft=4;spacingRight=4;overflow=hidden;rotatable=0;points=[[0,0.5],[1,0.5]];portConstraint=eastwest;" parent="category-class" vertex="1">
                    <mxGeometry y="128" width="180" height="32" as="geometry"/>
                </mxCell>

                <!-- Relationships -->
                <!-- User creates Request -->
                <mxCell id="user-request-relation" value="creates" style="endArrow=open;endFill=1;endSize=12;html=1;rounded=0;" edge="1" parent="1" source="user-class" target="request-class">
                    <mxGeometry width="160" relative="1" as="geometry">
                        <mxPoint x="290" y="190" as="sourcePoint"/>
                        <mxPoint x="350" y="190" as="targetPoint"/>
                    </mxGeometry>
                </mxCell>
                <mxCell id="user-request-multiplicity" value="1..*" style="resizable=0;html=1;whiteSpace=wrap;align=right;verticalAlign=bottom;" connectable="0" vertex="1" parent="user-request-relation">
                    <mxGeometry x="1" relative="1" as="geometry"/>
                </mxCell>

                <!-- Item belongs to Category -->
                <mxCell id="item-category-relation" value="belongs to" style="endArrow=open;endFill=1;endSize=12;html=1;rounded=0;" edge="1" parent="1" source="item-class" target="category-class">
                    <mxGeometry width="160" relative="1" as="geometry">
                        <mxPoint x="780" y="340" as="sourcePoint"/>
                        <mxPoint x="780" y="360" as="targetPoint"/>
                    </mxGeometry>
                </mxCell>
                <mxCell id="item-category-multiplicity" value="*" style="resizable=0;html=1;whiteSpace=wrap;align=right;verticalAlign=bottom;" connectable="0" vertex="1" parent="item-category-relation">
                    <mxGeometry x="1" relative="1" as="geometry"/>
                </mxCell>

                <!-- Item supplied by Supplier -->
                <mxCell id="item-supplier-relation" value="supplied by" style="endArrow=open;endFill=1;endSize=12;html=1;rounded=0;" edge="1" parent="1" source="item-class" target="supplier-class">
                    <mxGeometry width="160" relative="1" as="geometry">
                        <mxPoint x="880" y="180" as="sourcePoint"/>
                        <mxPoint x="960" y="180" as="targetPoint"/>
                    </mxGeometry>
                </mxCell>
                <mxCell id="item-supplier-multiplicity" value="*" style="resizable=0;html=1;whiteSpace=wrap;align=right;verticalAlign=bottom;" connectable="0" vertex="1" parent="item-supplier-relation">
                    <mxGeometry x="1" relative="1" as="geometry"/>
                </mxCell>

                <!-- Category self-reference -->
                <mxCell id="category-self-relation" value="parent/child" style="endArrow=open;endFill=1;endSize=12;html=1;rounded=0;" edge="1" parent="1" source="category-class" target="category-class">
                    <mxGeometry width="160" relative="1" as="geometry">
                        <mxPoint x="860" y="440" as="sourcePoint"/>
                        <mxPoint x="900" y="400" as="targetPoint"/>
                        <Array as="points">
                            <mxPoint x="900" y="440"/>
                            <mxPoint x="900" y="400"/>
                        </Array>
                    </mxGeometry>
                </mxCell>
                <mxCell id="category-self-multiplicity" value="0..*" style="resizable=0;html=1;whiteSpace=wrap;align=right;verticalAlign=bottom;" connectable="0" vertex="1" parent="category-self-relation">
                    <mxGeometry x="1" relative="1" as="geometry"/>
                </mxCell>
            </root>
        </mxGraphModel>
    </diagram>
</mxfile>